<?xml version="1.0" standalone="no"?>
<!DOCTYPE svg PUBLIC "-//W3C//DTD SVG 20010904//EN"
 "http://www.w3.org/TR/2001/REC-SVG-20010904/DTD/svg10.dtd">
<svg version="1.0" xmlns="http://www.w3.org/2000/svg"
 width="200.000000pt" height="200.000000pt" viewBox="0 0 200.000000 200.000000"
 preserveAspectRatio="xMidYMid meet">

<g transform="translate(0.000000,200.000000) scale(0.100000,-0.100000)"
fill="#000000" stroke="none">
<path d="M1340 1247 c-13 -7 -31 -24 -39 -39 -28 -50 24 -109 83 -94 15 4 26
14 26 23 0 15 -2 14 -19 -1 -15 -14 -24 -15 -40 -7 -46 25 -35 111 14 111 14
0 25 -4 25 -10 0 -5 5 -10 10 -10 6 0 10 7 10 15 0 8 -4 15 -9 15 -5 0 -15 2
-23 5 -7 3 -24 -1 -38 -8z"/>
<path d="M1595 1252 c-17 -6 -20 -16 -20 -75 l0 -67 30 0 c22 0 26 3 17 12
-16 16 -16 51 1 46 6 -3 18 -17 25 -31 7 -15 20 -27 28 -27 19 0 18 7 -6 40
-17 24 -18 29 -5 40 23 19 18 49 -11 60 -28 11 -30 11 -59 2z m55 -37 c0 -18
-5 -25 -20 -25 -15 0 -20 7 -20 25 0 18 5 25 20 25 15 0 20 -7 20 -25z"/>
<path d="M414 1100 c0 -85 2 -120 3 -77 2 42 2 112 0 155 -1 42 -3 7 -3 -78z"/>
<path d="M469 1241 c10 -6 12 -25 9 -70 -4 -58 -3 -61 18 -61 20 0 22 4 17 35
-5 33 -4 35 21 35 31 0 44 -24 27 -51 -10 -17 -8 -19 21 -19 25 0 29 3 20 12
-16 16 -16 115 1 121 6 3 -4 5 -23 5 -19 0 -29 -2 -22 -5 6 -2 12 -16 12 -29
0 -20 -5 -24 -31 -24 -29 0 -31 2 -27 30 4 28 2 30 -26 30 -22 0 -27 -3 -17
-9z"/>
<path d="M635 1180 l0 -70 46 0 c32 0 49 5 52 15 4 8 2 17 -3 20 -6 4 -10 1
-10 -4 0 -6 -11 -11 -25 -11 -20 0 -25 5 -25 25 0 27 9 32 28 13 9 -9 12 -6
12 17 0 23 -3 26 -12 17 -19 -19 -28 -14 -28 14 0 24 3 26 30 21 17 -4 30 -2
30 3 0 6 -21 10 -47 10 l-48 0 0 -70z"/>
<path d="M795 1238 c-2 -7 -13 -38 -25 -68 -11 -30 -20 -56 -20 -57 0 -2 9 -3
21 -3 16 0 19 4 14 21 -6 18 -3 20 22 17 20 -2 27 -8 25 -20 -2 -13 4 -18 23
-18 26 0 32 9 16 26 -5 5 -16 33 -26 62 -16 49 -40 69 -50 40z m25 -32 c0 -8
3 -21 6 -30 4 -12 0 -16 -16 -16 -16 0 -20 4 -16 16 3 9 6 22 6 30 0 8 5 14
10 14 6 0 10 -6 10 -14z"/>
<path d="M899 1241 c10 -6 12 -25 9 -70 l-4 -61 42 0 c30 0 44 5 48 16 4 9 3
20 0 23 -4 3 -9 0 -11 -6 -3 -7 -16 -13 -29 -13 -22 0 -24 4 -24 48 0 26 5 53
12 60 9 9 4 12 -22 12 -24 0 -31 -3 -21 -9z"/>
<path d="M1011 1233 c0 -11 3 -13 6 -5 2 6 11 12 19 12 18 0 20 -100 2 -118
-9 -9 -3 -12 27 -12 30 0 36 3 27 12 -18 18 -16 118 2 118 8 0 17 -6 19 -12 3
-8 6 -6 6 5 1 14 -8 17 -54 17 -46 0 -55 -3 -54 -17z"/>
<path d="M1145 1180 c0 -65 1 -70 22 -70 19 0 21 4 16 35 -5 33 -4 35 21 35
31 0 44 -24 27 -51 -10 -17 -8 -19 21 -19 25 0 29 3 20 12 -16 16 -16 115 1
121 6 3 -4 5 -23 5 -19 0 -29 -2 -22 -5 6 -2 12 -16 12 -29 0 -20 -5 -24 -31
-24 -29 0 -31 2 -27 30 4 25 1 30 -16 30 -19 0 -21 -6 -21 -70z"/>
<path d="M1456 1195 c-9 -30 -21 -57 -26 -60 -19 -12 -10 -25 16 -25 22 0 24
2 14 15 -10 12 -9 16 3 21 26 10 52 0 49 -19 -2 -12 4 -17 24 -17 20 0 24 3
16 13 -5 6 -18 38 -28 70 -23 75 -44 76 -68 2z m44 -17 c0 -10 -7 -18 -15 -18
-16 0 -19 17 -9 45 5 13 8 14 15 3 5 -7 9 -21 9 -30z"/>
<path d="M1715 1180 l0 -70 46 0 c32 0 49 5 52 15 4 8 2 17 -3 20 -6 4 -10 1
-10 -4 0 -6 -11 -11 -25 -11 -20 0 -25 5 -25 25 0 27 9 32 28 13 9 -9 12 -6
12 17 0 23 -3 26 -12 17 -19 -19 -28 -14 -28 14 0 24 3 26 30 21 17 -4 30 -2
30 3 0 6 -21 10 -47 10 l-48 0 0 -70z"/>
<path d="M245 1232 c6 -4 25 -25 42 -48 l32 -41 -77 -18 c-95 -22 -108 -28
-127 -65 l-15 -28 66 -37 c36 -20 67 -35 69 -33 17 17 55 82 65 112 17 52 25
51 43 -2 l16 -47 0 77 1 78 -52 30 c-47 27 -91 42 -63 22z"/>
<path d="M475 1080 c-20 -22 -20 -22 23 -59 24 -20 40 -40 36 -44 -11 -11 -54
-9 -54 3 0 6 -4 10 -10 10 -5 0 -10 -6 -10 -14 0 -19 54 -30 79 -16 32 16 26
47 -14 72 -19 13 -35 28 -35 35 0 22 21 25 42 6 20 -18 20 -18 17 2 -6 29 -50
31 -74 5z"/>
<path d="M570 1095 c0 -2 11 -21 25 -41 27 -40 33 -79 13 -87 -7 -3 5 -5 27
-5 22 0 34 2 28 5 -19 7 -16 38 7 83 25 49 25 50 -1 50 -15 0 -19 -4 -15 -16
3 -8 1 -25 -5 -36 -11 -21 -12 -21 -24 2 -7 13 -11 30 -8 37 3 9 -4 13 -21 13
-14 0 -26 -2 -26 -5z"/>
<path d="M726 1087 c-25 -18 -15 -48 24 -70 37 -22 40 -47 5 -47 -14 0 -25 5
-25 10 0 6 -4 10 -10 10 -21 0 -9 -30 15 -36 29 -7 75 18 75 42 0 8 -16 24
-35 35 -35 21 -44 42 -24 54 5 4 19 -1 31 -12 20 -18 20 -18 17 2 -5 25 -46
32 -73 12z"/>
<path d="M820 1078 c0 -17 3 -19 12 -10 7 7 18 12 25 12 18 0 18 -106 1 -113
-7 -3 3 -5 22 -5 19 0 29 2 23 5 -18 7 -18 113 0 113 7 0 19 -6 26 -12 10 -11
12 -9 9 7 -3 17 -12 20 -61 23 -53 3 -57 2 -57 -20z"/>
<path d="M955 1030 l0 -70 53 0 c42 0 52 3 52 17 0 13 -3 14 -12 5 -7 -7 -22
-12 -35 -12 -18 0 -23 6 -23 26 0 23 3 25 25 20 21 -5 25 -3 25 14 0 17 -4 19
-25 14 -21 -5 -25 -3 -25 16 0 20 4 22 30 17 22 -5 30 -3 30 8 0 11 -12 15
-47 15 l-48 0 0 -70z"/>
<path d="M1080 1091 c0 -6 4 -11 9 -11 12 0 0 -104 -13 -112 -6 -4 0 -8 14 -8
24 0 25 2 23 57 l-3 58 21 -57 c11 -32 24 -58 29 -58 4 0 13 21 20 47 12 43
14 44 22 22 5 -13 7 -34 5 -46 -4 -19 0 -23 22 -23 15 0 21 3 15 8 -13 8 -23
112 -11 112 4 0 7 5 7 10 0 6 -10 10 -23 10 -19 0 -26 -9 -38 -47 l-15 -48
-15 45 c-13 37 -21 46 -42 48 -15 2 -27 -1 -27 -7z"/>
<path d="M643 875 c0 -22 2 -30 4 -17 2 12 2 30 0 40 -3 9 -5 -1 -4 -23z"/>
<path d="M693 875 c0 -22 2 -30 4 -17 2 12 2 30 0 40 -3 9 -5 -1 -4 -23z"/>
<path d="M512 870 c0 -19 2 -27 5 -17 2 9 2 25 0 35 -3 9 -5 1 -5 -18z"/>
<path d="M541 895 c-8 -33 -7 -55 1 -47 6 6 8 20 5 33 -2 13 -5 20 -6 14z"/>
<path d="M1411 884 c0 -11 3 -14 6 -6 3 7 2 16 -1 19 -3 4 -6 -2 -5 -13z"/>
<path d="M1262 865 c0 -16 2 -22 5 -12 2 9 2 23 0 30 -3 6 -5 -1 -5 -18z"/>
<path d="M1351 883 c0 -4 4 -17 9 -28 8 -19 9 -19 9 2 1 12 -3 25 -9 28 -5 3
-10 3 -9 -2z"/>
<path d="M567 860 c3 -11 7 -20 9 -20 2 0 4 9 4 20 0 11 -4 20 -9 20 -5 0 -7
-9 -4 -20z"/>
<path d="M592 860 c0 -14 2 -19 5 -12 2 6 2 18 0 25 -3 6 -5 1 -5 -13z"/>
<path d="M622 860 c0 -14 2 -19 5 -12 2 6 2 18 0 25 -3 6 -5 1 -5 -13z"/>
<path d="M746 865 c4 -8 11 -15 16 -15 6 0 5 6 -2 15 -7 8 -14 15 -16 15 -2 0
-1 -7 2 -15z"/>
<path d="M842 860 c0 -14 2 -19 5 -12 2 6 2 18 0 25 -3 6 -5 1 -5 -13z"/>
<path d="M862 860 c0 -14 2 -19 5 -12 2 6 2 18 0 25 -3 6 -5 1 -5 -13z"/>
<path d="M892 860 c0 -14 2 -19 5 -12 2 6 2 18 0 25 -3 6 -5 1 -5 -13z"/>
<path d="M946 872 c-2 -4 -1 -14 4 -22 7 -11 9 -9 7 8 -1 24 -3 26 -11 14z"/>
<path d="M976 867 c3 -10 9 -15 12 -12 3 3 0 11 -7 18 -10 9 -11 8 -5 -6z"/>
<path d="M1000 866 c0 -12 5 -16 15 -12 8 3 15 0 15 -6 0 -6 3 -9 6 -5 3 3 1
14 -5 24 -8 14 -10 14 -11 3 0 -13 -1 -13 -10 0 -8 13 -10 12 -10 -4z"/>
<path d="M1092 860 c0 -14 2 -19 5 -12 2 6 2 18 0 25 -3 6 -5 1 -5 -13z"/>
<path d="M1180 875 c0 -5 5 -17 10 -25 5 -8 10 -10 10 -5 0 6 -5 17 -10 25 -5
8 -10 11 -10 5z"/>
<path d="M1220 871 c0 -5 7 -12 16 -15 14 -5 15 -4 4 9 -14 17 -20 19 -20 6z"/>
<path d="M1332 860 c0 -14 2 -19 5 -12 2 6 2 18 0 25 -3 6 -5 1 -5 -13z"/>
<path d="M1382 860 c0 -14 2 -19 5 -12 2 6 2 18 0 25 -3 6 -5 1 -5 -13z"/>
<path d="M660 861 c0 -6 4 -13 10 -16 6 -3 7 1 4 9 -7 18 -14 21 -14 7z"/>
<path d="M780 861 c0 -6 4 -13 10 -16 6 -3 7 1 4 9 -7 18 -14 21 -14 7z"/>
<path d="M1145 860 c3 -5 11 -10 16 -10 6 0 7 5 4 10 -3 6 -11 10 -16 10 -6 0
-7 -4 -4 -10z"/>
<path d="M1286 855 c4 -8 11 -15 16 -15 6 0 5 6 -2 15 -7 8 -14 15 -16 15 -2
0 -1 -7 2 -15z"/>
<path d="M1060 850 c0 -5 5 -10 11 -10 5 0 7 5 4 10 -3 6 -8 10 -11 10 -2 0
-4 -4 -4 -10z"/>
</g>
</svg>
